<svg xmlns="http://www.w3.org/2000/svg" xmlns:xlink="http://www.w3.org/1999/xlink" version="1.1" id="Layer_1" x="0px" y="0px" style="enable-background:new 0 0 900 625;" xml:space="preserve" viewBox="25 28.2 850 568.6">
<style type="text/css">
	.st0{fill:#FFFFFF;}
</style>
<path class="st0" d="M25,596.8h29.4V484H25V596.8z M153.4,484l0.2,67.9L102.2,484H76.3v112.8h27.5v-67.4l51.2,67.4h25.7V484H153.4z   M202.8,596.8h29.4V484h-29.4V596.8z M244.3,484v24.3h33.5v88.5h29.4v-88.5H341V484H244.3z M352.9,596.8h29.4V484h-29.4V596.8z   M455.2,514.1l15.4,40.2h-31.2L455.2,514.1z M440.9,484l-48.4,112.8h30.3l7.9-20h48.8l7.7,20h31.4L471.2,484H440.9z M506.7,484v24.3  h33.5v88.5h29.4v-88.5h33.8V484H506.7z M615.3,596.8h29.4V484h-29.4V596.8z M743.6,484l-28.3,81.6L687.1,484h-31.7l43.8,112.8h30.6  L773.8,484H743.6z M784.4,484v112.8H875v-23.5h-61.1v-21.2l53.7-0.2v-23.3h-53.7v-21.1h59.5V484H784.4z"/>
<path class="st0" d="M171.8,199.6v89.1H83.6v-89.1h-57v218.5h57v-83.8h88.2v83.8h57V199.6H171.8z M271.2,199.6v218.5h175.5v-45.5  H328.3v-41.1l104.1-0.3v-45.2H328.3v-40.8h115.3v-45.5H271.2z M580.4,257.9l29.9,77.9h-60.5L580.4,257.9z M552.6,199.6l-93.8,218.5  h58.6l15.3-38.6h94.4l15,38.6h60.8l-91.6-218.5H552.6z M722.5,199.6v218.5h149.6v-48.6h-92.6V199.6H722.5z"/>
<path class="st0" d="M102.1,28.2l0.2,67.9L50.9,28.2H25V141h27.5V73.5l51.2,67.4h25.7V28.2H102.1z M151.5,141h29.4V28.2h-29.4V141z   M277.8,28.2v46h-45.5v-46h-29.4V141h29.4V97.7h45.5V141h29.4V28.2H277.8z"/>
</svg>